HIERARCHY
ROOT pelvis
{
  OFFSET 0 100 0
  CHANNELS 6 Xposition Yposition Zposition Zrotation Xrotation Yrotation
  JOINT pelvis_right_femur
  {
    OFFSET -10.78128 -3.44521 -0.5502486
    CHANNELS 3 Zrotation Xrotation Yrotation
    JOINT right_femur_tibia
    {
      OFFSET -0.8047443 -44.0398 -0.1307829
      CHANNELS 3 Zrotation Xrotation Yrotation
      JOINT right_tibia_foot
      {
        OFFSET 3.006224 -47.83518 -5
        CHANNELS 3 Zrotation Xrotation Yrotation
        End Site
        {
          OFFSET 0 -5 15
        }
      }
    }
  }
  JOINT pelvis_left_femur
  {
    OFFSET 10.78128 -3.44521 -0.5502486
    CHANNELS 3 Zrotation Xrotation Yrotation
    JOINT left_femur_tibia
    {
      OFFSET 0.8047443 -44.0398 -0.1307829
      CHANNELS 3 Zrotation Xrotation Yrotation
      JOINT left_tibia_foot
      {
        OFFSET -4.370144 -48.10324 -4.275266
        CHANNELS 3 Zrotation Xrotation Yrotation
        End Site
        {
          OFFSET 0 -5 15
        }
      }
    }
  }
  JOINT pelvis_spine1
  {
    OFFSET 0 6.468898 -3.129235
    CHANNELS 3 Zrotation Xrotation Yrotation
    JOINT spine1
    {
      OFFSET 0 23.15396 4.99043
      CHANNELS 3 Zrotation Xrotation Yrotation
      JOINT spine2
      {
        OFFSET 0 20.79997 -5.064912
        CHANNELS 3 Zrotation Xrotation Yrotation
        JOINT neck
        {
          OFFSET 0 14.38658 9.616178
          CHANNELS 3 Zrotation Xrotation Yrotation
          End Site
          {
            OFFSET 0 20 0
          }
        }
      }
      JOINT right_manubrium
      {
        OFFSET -5.722621 16.35077 3.967754
        CHANNELS 3 Zrotation Xrotation Yrotation
        JOINT right_clavicle
        {
          OFFSET -13.16364 1.694482 -4.693211
          CHANNELS 3 Zrotation Xrotation Yrotation
          JOINT right_humerus
          {
            OFFSET -28.5034 -0.3100689 -2.792744
            CHANNELS 3 Zrotation Xrotation Yrotation
            JOINT right_radius
            {
              OFFSET -25.15693 0.02248979 -1.271978
              CHANNELS 3 Zrotation Xrotation Yrotation
              End Site
              {
                OFFSET -15 0 0
              }
            }
          }
        }
      }
      JOINT left_manubrium
      {
        OFFSET 5.722621 16.35077 3.967754
        CHANNELS 3 Zrotation Xrotation Yrotation
        JOINT left_clavicle
        {
          OFFSET 13.16364 1.694482 -4.693211
          CHANNELS 3 Zrotation Xrotation Yrotation
          JOINT left_humerus
          {
            OFFSET 29.39168 -1.063119 -2.237045
            CHANNELS 3 Zrotation Xrotation Yrotation
            JOINT left_radius
            {
              OFFSET 24.59957 -0.9528479 0.9047498
              CHANNELS 3 Zrotation Xrotation Yrotation
              End Site
              {
                OFFSET 15 -0 -0
              }
            }
          }
        }
      }
    }
  }
}
MOTION
Frames: 6
Frame Time: 0.0416666666667
37.515 103.4897 249.1481 2.321199 -7.483909 4.393283 0.9368364 12.04119 6.283098 -7.438572e-06 38.3201 6.042492e-06 4.802885 -10.38803 -3.922599 -3.558475 -14.23165 -9.324719 -4.944356e-06 20.33943 -5.273905e-06 -7.118855 -10.30216 18.52807 -2.099451 -0.1871206 7.209934 -0.8589531 9.025396 -3.07035 2.071407 22.18192 6.104629 2.037415 -17.29227 8.222641 1.675166 -20.35818 10.88249 82.45547 22.9601 -9.135598 -9.378847e-08 -8.886818e-07 24.21597 -25.20265 12.79229 13.90599 3.748991 -13.41972 -3.012537 -95.03836 25.61406 26.49211 -2.40738e-06 3.118156e-06 -9.339592 -5.87411 5.503304 19.89569
38.98996 104.0634 255.1947 2.59849 -8.041039 4.812845 0.3987111 9.849016 6.280292 -7.681309e-06 45.15866 6.971883e-06 4.385464 -8.898422 -4.615348 -4.496763 -10.99483 -10.17123 -4.608021e-06 21.30917 -4.45132e-06 -6.588016 -10.84448 18.36281 -2.426928 -0.251648 6.676721 -0.9378585 9.08305 -3.327016 2.058896 22.53206 6.193785 1.976384 -17.0608 8.39077 1.947409 -19.57234 10.70756 83.09339 23.24885 -9.932938 -8.972954e-08 -8.08148e-07 22.81812 -24.58623 12.58565 13.29147 3.443255 -13.53948 -3.249091 -93.81247 26.29306 24.83471 -1.741035e-06 2.766493e-06 -9.502039 -5.556436 5.859482 19.53368
40.406 104.8931 260.8883 2.853039 -8.616693 5.467049 -0.03202222 6.362883 6.106598 -7.10948e-06 51.03956 7.014135e-06 3.882836 -8.15353 -5.504723 -5.239571 -7.094223 -10.89578 -3.179292e-06 21.27885 -3.742638e-06 -6.059452 -11.77836 17.96875 -2.713556 -0.1558091 5.97715 -0.9306629 9.108433 -3.762401 2.005906 22.93338 6.277758 1.817219 -16.76061 8.59353 2.173548 -18.76774 10.54185 84.09246 23.58275 -11.02794 -2.803981e-08 -5.740762e-07 21.37176 -23.82924 12.50207 12.64414 3.19687 -13.90211 -3.586074 -92.3416 27.03861 22.62193 -8.002352e-07 2.044388e-06 -10.24235 -5.163353 6.269749 19.06542
41.73485 105.828 266.2008 2.969 -9.008193 6.300698 -0.1810081 1.753598 5.795041 -5.339839e-06 54.66747 5.766212e-06 3.180174 -8.100854 -6.482538 -5.668568 -2.628428 -11.47871 -9.463112e-07 20.67547 -2.833294e-06 -5.680906 -12.86925 17.2958 -2.850931 0.0497805 5.126145 -0.7718004 9.058993 -4.35697 1.933551 23.24702 6.320362 1.585894 -16.50352 8.794619 2.330885 -17.94149 10.36174 85.20022 23.94134 -12.37158 6.014494e-08 -2.154752e-07 19.82016 -22.73221 12.51371 11.89305 3.048594 -14.45986 -3.93241 -90.62549 27.72415 20.03239 2.430345e-07 1.104539e-06 -11.43327 -4.651738 6.755266 18.4355
42.98113 106.6382 271.1646 3.011648 -9.111487 7.252197 -0.1388391 -3.168102 5.302144 -2.83511e-06 55.17697 3.43684e-06 2.492561 -8.351591 -7.237835 -5.847194 1.492051 -11.92465 1.451244e-06 19.01487 -2.287883e-06 -5.384429 -14.23291 16.66938 -2.887598 0.3297084 4.32011 -0.5342729 8.947318 -4.923649 1.863195 23.43222 6.382409 1.411924 -16.38789 8.969936 2.357393 -17.24659 10.22216 86.12403 24.17098 -13.66778 1.520737e-07 1.31214e-07 18.42181 -21.70284 12.47543 11.22667 3.149651 -15.14707 -4.255925 -88.95162 28.14438 17.41907 1.115298e-06 1.786657e-07 -12.98269 -4.05101 7.255594 17.64254
44.15149 107.1363 275.9421 2.991634 -8.895015 8.237102 0.03811376 -8.040971 4.667506 -7.086099e-07 52.34353 1.192562e-06 1.996486 -8.815139 -7.789991 -5.826743 5.303852 -12.18612 3.312508e-06 16.70159 -1.954439e-06 -5.277235 -15.78934 16.12817 -2.854731 0.577928 3.603114 -0.2305756 8.715122 -5.437878 1.833749 23.50347 6.438439 1.309942 -16.39187 9.109974 2.22532 -16.60379 10.07705 86.92407 24.2391 -14.96456 2.140668e-07 4.14927e-07 17.08397 -20.88197 12.41371 10.65652 3.535891 -15.92368 -4.488329 -87.37534 28.30349 14.70479 1.664777e-06 -5.464599e-07 -14.95562 -3.426869 7.709826 16.74551
